<svg version="1.1" id="Objects" xmlns="http://www.w3.org/2000/svg" x="0" y="0" viewBox="0 0 799.2 123" xml:space="preserve"><style>.st0{fill:#3777b9}.st1{fill:#27afec}.st2{fill:#fff}.st3{enable-background:new}</style><g id="logo"><g id="icon"><path class="st0" d="M132.5 23.9l-12.9-16v90H37.7l13.4 12.9h53.5l20.8 12.2-3-12.2 10.1-.2v-55-31.7z"/><path class="st1" d="M112.1 0v91.8H37.8L9.4 108.4l4.5-16.8L0 91.5V0h112.1z"/><circle class="st2" cx="27" cy="45.5" r="11.3"/><circle class="st2" cx="56" cy="45.5" r="11.3"/><circle class="st2" cx="85.1" cy="45.5" r="11.3"/></g><g class="st3"><path class="st1" d="M202 28.6c15.6 0 26.1 8.1 29.5 22.2h-17.1c-1.8-5.3-6-8.7-12.6-8.7-8.8 0-14.7 6.7-14.7 18.9s5.9 18.8 14.7 18.8c6.6 0 10.6-2.9 12.6-8.6h17.1c-3.4 13.3-13.9 22.2-29.5 22.2-18.1 0-31-12.7-31-32.3.1-19.8 13-32.5 31-32.5zM243.2 8.6H259v28.8c4.1-5.3 11.1-8.7 19.5-8.7 14.1 0 24.4 9.5 24.4 26.8v36.8h-15.8V57.7c0-10.1-5.5-15.5-13.9-15.5-8.6 0-14.1 5.4-14.1 15.5v34.6h-15.8V8.6zM342.5 28.6c10.1 0 17 4.7 20.7 10v-8.9h15.9v62.7h-15.9v-9.2c-3.7 5.4-10.9 10.2-20.8 10.2-15.8 0-28.5-13-28.5-32.6s12.7-32.2 28.6-32.2zm4.1 13.9c-8.5 0-16.5 6.3-16.5 18.2 0 11.9 8 18.7 16.5 18.7 8.7 0 16.6-6.6 16.6-18.4s-7.9-18.5-16.6-18.5zM397.1 42.6h-7.5v-13h7.5V14.1H413v15.5h14v13h-14V73c0 4.2 1.7 6 6.7 6h7.4v13.3h-10c-12 0-20-5.1-20-19.5V42.6zM441 42.6h-7.5v-13h7.5V14.1h16v15.5h14v13h-14V73c0 4.2 1.7 6 6.7 6h7.4v13.3h-10c-12 0-20-5.1-20-19.5V42.6zM509.8 93.3c-18.2 0-31.4-12.7-31.4-32.3 0-19.8 12.9-32.3 31.4-32.3 18.1 0 30.9 12.3 30.9 31 0 2-.1 4.1-.5 6.1h-45.8c.8 9.3 7.1 14.5 15 14.5 6.8 0 10.5-3.4 12.6-7.6h17.1c-3.4 11.4-13.8 20.6-29.3 20.6zm-15.3-38.2h29.7c-.2-8.3-6.8-13.5-14.9-13.5-7.5 0-13.5 4.9-14.8 13.5zM568 92.3h-15.8V29.6H568v9.7c4-6.4 10.5-10.6 19.2-10.6v16.6H583c-9.4 0-15 3.6-15 15.7v31.3z"/></g><g class="st3"><path class="st0" d="M634.5 28.6c16.1 0 28.6 12.6 28.6 32.1 0 19.6-12.6 32.6-28.6 32.6-9.8 0-16.9-4.5-20.7-10v8.9H598V8.6h15.8v30.2c3.8-5.8 11.2-10.2 20.7-10.2zm-4.2 13.9c-8.5 0-16.5 6.6-16.5 18.4s8 18.4 16.5 18.4c8.6 0 16.6-6.8 16.6-18.7 0-11.7-8-18.1-16.6-18.1zM702.4 93.3c-18.1 0-31.8-12.7-31.8-32.3 0-19.8 14.1-32.3 32.2-32.3S735 41.3 735 61c.1 19.6-14.4 32.3-32.6 32.3zm0-13.8c8.4 0 16.4-6.1 16.4-18.5 0-12.6-7.8-18.5-16.2-18.5s-15.9 6-15.9 18.5c0 12.4 7.3 18.5 15.7 18.5zM768.5 72.8l-11.4 19.5h-17l20.5-31.4-20.7-31.2h17.9L770.5 49 782 29.7h17l-20.6 31.2 20.8 31.4h-17.9l-12.8-19.5z"/></g></g></svg>