<svg version="1.1" id="MAIN_OBJECT" xmlns="http://www.w3.org/2000/svg" x="0" y="0" viewBox="0 0 908.4 752.7" xml:space="preserve"><style>.st1{fill:#c7d0ff}.st2{fill:#17aeef}.st3{fill:#ffd4d5}.st5{fill:#fff}.st7{fill:#656fd8}.st9{fill:#260f72}.st12{opacity:.29;fill:#170000}.st13{fill:#1261dc}.st17{fill:#d5e1f5}.st18{fill:#b1bafd}</style><linearGradient id="XMLID_3_" gradientUnits="userSpaceOnUse" x1="864.27" y1="450.591" x2="248.303" y2="382.38"><stop offset="0" stop-color="#fff"/><stop offset="1" stop-color="#f2eaff"/></linearGradient><path id="XMLID_198_" d="M161.1 78.5S683.2-21.7 804.3 137c121.1 158.7-4.2 471.9-137.8 547.1-133.7 75.2-580.6 112.8-572.2-16.7 8.4-129.5 258.9-229.7 158.7-296.5-100.3-66.8-321.6-204.7-91.9-292.4z" fill="url(#XMLID_3_)"/><path id="XMLID_197_" class="st1" d="M89.2 179.1c-1.7 11.7-7.9 30.6-12.6 43.6 6.1 9.7 13.7 19.4 22.3 28.9 27.9-3.8 66.9-10.1 57.8-14.6-13.8-6.9-44.1-1.4-40-4.1 4.1-2.8 81.3-19.3 66.1-26.2-15.2-6.9-44.1-2.8-44.1-2.8s74.4-22 62-28.9c-12.4-6.9-40-2.8-40-2.8s96.5-23.4 73-28.9c-23.4-5.5-49.6 0-49.6 0s102-35.8 75.8-35.8c-26.2 0-49.6 6.9-49.6 6.9s53.7-44.1 33.1-37.2c-20.7 6.9-48.2 34.5-48.2 34.5S180 77.2 177.3 88.3c-2.8 11-1.4 44.1-1.4 44.1s-15.2-38.6-20.7-26.2c-5.5 12.4 0 52.4 0 52.4s-19.3-42.7-26.2-34.5c-6.9 8.3-1.4 53.7-1.4 53.7s-15.2-35.8-19.3-26.2c-4.1 9.6-1.4 49.6-1.4 49.6S92 159.8 89.2 179.1z"/><path id="XMLID_196_" class="st1" d="M673.5 104.7c1.4 11 45.5 2.8 41.3 4.1-4.1 1.4-63.4 16.5-56.5 28.9 6.9 12.4 31.7 2.8 31.7 2.8s-68.9 26.2-52.4 34.5c16.5 8.3 38.6-4.1 38.6-4.1s-49.6 53.7-41.3 60.6c8.3 6.9 55.1-41.3 55.1-41.3s-15.2 48.2 1.4 41.3c16.5-6.9 20.7-63.4 20.7-63.4s-4.1 66.1 16.5 49.6c15.4-12.3 16.3-40.1 15.7-53.3-.4-4.3-.5-7.3-.5-7.3s.4 2.8.5 7.3c1.4 15.1 5.9 47.3 18.7 31.3 11.8-14.8 9.6-32.4 7.3-41.2-1.1-3.4-1.8-5.7-1.8-5.7s.9 2.2 1.8 5.7c4.3 13.2 15.9 44.2 25.8 34.3 7.2-7.2 13-25.4 16.6-39.6-2.7-4.1-5.4-8.2-8.5-12.2-18.4-24.1-46-42.2-79.6-55.6-22.7 6.6-51.9 16.5-51.1 23.3z"/><path id="XMLID_195_" class="st1" d="M628 118.4c9-13.9 17.9-43 22.2-58-26.8-5.1-55.3-8.5-84.5-10.6-25.5 7.2-51.2 15.9-43.8 20.3 6.5 3.9 15.5 5 23.2 5.1 8.9-.7 15.4-1 15.4-1s-6.9 1.1-15.4 1c-19.1 1.6-48.9 5.2-48 12.8 1.2 9.6 23.2 8.8 28.9 8.4.8-.1 1.4-.1 1.4-.1s-.5 0-1.4.1c-8.6.7-59 5.1-56.5 16.4 2.8 12.4 26.2 9.6 26.2 9.6s-49.6 16.5-44.1 24.8 27.6-4.1 27.6-4.1-38.6 42.7-27.6 46.9c11 4.1 44.1-40 44.1-40s-16.5 40-2.8 38.6 30.3-48.2 30.3-48.2-4.1 46.9 11 37.2c15.2-9.6 19.3-57.9 19.3-57.9s0 56.5 16.5 40 12.4-60.6 12.4-60.6 8.3 52.4 19.3 35.8c11-16.5 8.3-51 8.3-51s5.6 53.8 18 34.5z"/><path id="XMLID_194_" class="st2" d="M694.2 596.6l-124 16.5s-14.3 51.7-15.1 110.5c45.5-11 84.7-24.5 111.4-39.5 18.2-10.3 36.3-25.1 53.6-43.2l-25.9-44.3z"/><path id="XMLID_193_" class="st1" d="M499.9 654.5c-23.4 4.1-41.3 22-40 2.8 1.4-19.3 15.2-57.9-12.4-56.5-27.6 1.4-38.6 5.5-40-12.4-1.4-17.9-37.2-45.5-48.2-16.5-11 28.9 9.6 49.6-8.3 48.2-17.9-1.4-31.7 0-26.2 22s45.5 45.5 23.4 44.1c-22-1.4-37.2-5.5-30.3 15.2 6.9 20.7 16.5 24.8 9.6 27.6-6.9 2.8-23.4-13.8-19.3 8.3 1.1 5.7 2.7 10.9 4.5 15.5 62.6-.3 130.5-7.1 191.9-18.4 5.2-29.3 12.4-82.9-4.7-79.9z"/><g id="XMLID_188_"><path id="XMLID_191_" class="st3" d="M641.7 557.7s9.4 26.2.6 37.9c-8.9 11.7-15.5 17.6-39.6 12.5C578.5 603 469.5 563 469.5 563s-4.1-22.1 8.3-22.2c12.3-.1 139.3 10.1 163.9 16.9z"/><path id="XMLID_190_" d="M528.1 544.2c42.5 3.6 98.2 9.2 113.5 13.5 0 0 9.4 26.2.6 37.9-8.9 11.7-15.5 17.6-39.6 12.5-12.8-2.7-49.5-15.3-81.2-26.4 1.7-10 4.6-27.3 6.7-37.5z" fill="#4048bd"/><path id="XMLID_189_" class="st3" d="M492.1 550.8s-20.6-17.8-29.6-21.3c-9.1-3.4-31.8-2.8-31.8-2.8s-3.8 3 2.5 6.1c6.3 3.1 17-.2 20.7 4.2 0 0-21.7 1.8-31.8 5.3-10.2 3.5-17.2 5.9-17.4 7.8-.2 1.8 5.8 9.4 11.1 11.9 5.3 2.6 57.8.2 63.3 2.2s13.4 5.9 13.4 5.9 12.6-11.3-.4-19.3z"/></g><path id="XMLID_187_" class="st5" d="M488.7 556.5H378.6l15.1-27.2h79.9z"/><path id="XMLID_184_" class="st2" d="M488.7 558.5H378.6c-.7 0-1.4-.4-1.8-1-.4-.6-.4-1.4 0-2.1l15.1-27.2c.4-.7 1.1-1.1 1.8-1.1h79.9c.8 0 1.4.4 1.8 1.1l15.1 27.2c.4.6.3 1.4 0 2.1-.4.7-1.1 1-1.8 1zm-106.6-4.1h103.1l-12.8-23.1h-77.5l-12.8 23.1z"/><path id="XMLID_183_" d="M601.8 680.7c.7-23.4 15.8-35.8 15.8-35.8l39.7-43.3-87.2 11.6s-14.3 51.7-15.1 110.5c21-5.1 40.6-10.7 58.3-16.7-6.3-6.8-11.8-15.7-11.5-26.3z" fill="#1d88e4"/><path id="XMLID_182_" class="st7" d="M623.2 325.8c-3.2-.6-32.7 25.2-42.7 27.1-10 1.9-39 76.3-36.9 90.7 2.1 14.5 22.7 31 21.7 71.3s-18.6 124-18.6 124 66.1 17.6 105.4 13.4l18.6-36.2 17.6 31s32-4.1 46.5-13.4c0 0-39.3-74.4-34.1-127.1 5.2-52.6 17.6-164.2-77.5-180.8z"/><g id="XMLID_178_"><path id="XMLID_181_" class="st3" d="M247.6 383.5s-6.8 18.9-.4 27.4c6.4 8.5 11.2 12.7 28.6 9 17.5-3.7 96.2-32.6 96.2-32.6s3-15.9-6-16c-8.9-.2-100.7 7.2-118.4 12.2z"/><path id="XMLID_180_" class="st3" d="M329.6 373.7c-30.7 2.6-70.9 6.6-82 9.7 0 0-6.8 18.9-.4 27.4 6.4 8.5 11.2 12.7 28.6 9 9.3-2 35.8-11 58.6-19.1-1.1-7.2-3.2-19.6-4.8-27z"/><path id="XMLID_179_" class="st3" d="M355.7 378.5s14.9-12.9 21.4-15.4c6.5-2.5 23-2 23-2s2.7 2.2-1.8 4.4c-4.6 2.2-12.3-.1-15 3.1 0 0 15.7 1.3 23 3.8 7.3 2.5 12.4 4.3 12.6 5.6.2 1.3-4.2 6.8-8 8.6-3.8 1.8-41.7.1-45.7 1.6s-9.7 4.2-9.7 4.2-9.2-8.1.2-13.9z"/></g><path id="XMLID_177_" fill="#fff5f5" d="M358.1 382.6h79.6l-10.9-19.7H369z"/><path id="XMLID_174_" class="st2" d="M437.7 384.6h-79.5c-.7 0-1.4-.4-1.8-1-.4-.6-.4-1.4 0-2.1l10.9-19.7c.4-.7 1.1-1.1 1.8-1.1h57.7c.8 0 1.4.4 1.8 1.1l10.9 19.7c.4.6.3 1.4 0 2.1-.4.6-1.1 1-1.8 1zm-76-4.1h72.5l-8.6-15.5h-55.3l-8.6 15.5z"/><path id="XMLID_173_" class="st9" d="M521.3 392.3s-16.6-156.5-6.3-171.7c10.3-15.2 33.2-41.7 69.9-35.4 36.8 6.3 53.8 110.3 45.3 127.3s-69.9 52.9-69.9 52.9l-3.6-13-1.3 17.5-14.3 8.5s-.9-13-1.8-11.7c-.9 1.3-3.1 15.7-3.1 15.7l-14.9 9.9z"/><path id="XMLID_172_" class="st3" d="M672.4 558.2s3.6 28.7-8.1 38.6c-11.7 9.9-19.7 14.3-43 3.6-23.3-10.8-124.6-76.2-124.6-76.2s.9-23.3 13.4-20.6 139 42.1 162.3 54.6z"/><path id="XMLID_171_" class="st3" d="M515.2 506.5s-5-27-6.5-30-10-2-10-2l-8-15.5s-20 4.5-24 7.5-18.5 9.7-13 11.2 20.3-6.8 20.3-6.8-4.8 13.6-6.8 19.5c-2 6 19 28.5 25.5 30.5s9.5 5.5 14 5 8.5-19.4 8.5-19.4z"/><path id="XMLID_170_" class="st3" d="M315.7 372.1s-12.8-70-24.6-74.8c-11.7-4.8-20.4-6.6-28.9 6.8-8.4 13.4 20.6 96.9 29.1 100 8.5 3.1 24.9-2.5 26.8-7 2-4.7-2.4-25-2.4-25z"/><path id="XMLID_169_" class="st3" d="M347.2 371.2s10.7 3.2 14.5 5.1c3.8 1.9 16.6 3.5 15.5 6-1 2.5-15.5-1.9-15.5-1.9s-5.2 7.9-9.7 7.3c-4.5-.6-8.6-1.6-8.6-1.6l-9-8.6c0 .1.4-8.5 12.8-6.3z"/><path id="XMLID_168_" class="st2" d="M263 259.6s14.5-.9 25.4 10.9c10.9 11.8 43.4 69.8 16.9 222 1.1 83.8-109.9 85.3-111 1.5-.1 0 8-257 68.7-234.4z"/><path id="XMLID_167_" d="M615.5 651.7c-15.2-11.7-34-29.4-34.6-46.3-1-28.4 51.7-63 51.7-64.6 0-1.6 23.8-112.1 24.3-132.8.5-20.7-.5-36.7-.5-36.7s-34.1 67.7-63 82.7-37.7-63.6-7.8-99.7c1.9-2.3 3.7-4.4 5.4-6.4-4.2 2.6-7.9 4.6-10.4 5-10 1.9-39 76.3-36.9 90.7 2.1 14.5 22.7 31 21.7 71.3s-18.6 124-18.6 124 34.6 9.3 68.7 12.8z" fill="#3d3fc2"/><path id="XMLID_166_" class="st3" d="M242.1 409.2s-2.6 20.7 5.8 27.8c8.4 7.1 14.2 10.4 31.1 2.6 16.8-7.8 90-55 90-55s-.6-16.8-9.7-14.9c-9.1 1.9-100.4 30.4-117.2 39.5z"/><path id="XMLID_165_" class="st3" d="M355.6 371.8s3.6-19.5 4.7-21.7c1.1-2.2 7.2-1.4 7.2-1.4l5.8-11.2s14.4 3.2 17.3 5.4c2.9 2.2 13.3 7 9.4 8.1-4 1.1-14.6-4.9-14.6-4.9s3.5 9.8 4.9 14.1c1.4 4.3-13.7 20.6-18.4 22-4.7 1.4-6.9 4-10.1 3.6-3.3-.3-6.2-14-6.2-14z"/><path id="XMLID_164_" d="M311.9 384.1c-28.4 9.1-60.5 20.1-69.9 25.1 0 0-2.6 20.7 5.8 27.8 8.4 7.1 14.2 10.4 31.1 2.6 13.2-6.1 60.5-36.2 80.7-49.1-17.1 2.6-38-3.2-47.7-6.4z" fill="#fda9ac"/><path id="XMLID_163_" class="st3" d="M268.7 221.4l-14.5 38.8s31 35.1 38.2 29.5c7.2-5.7-2.6-16.5-3.1-27.9-.5-11.4 8.8-32.6 8.8-32.6l-29.4-7.8z"/><path id="XMLID_162_" class="st12" d="M298.2 229.2l-29.5-7.8-7.5 20c11.9 12.6 28.8 33.3 30.4 48.5.3-.1.6-.1.8-.3 7.2-5.7-2.6-16.5-3.1-27.9-.4-11.3 8.9-32.5 8.9-32.5z"/><path id="XMLID_161_" class="st13" d="M288.3 320.1c-17.1-14-34.1-42.9-37.2-28.4-3.1 14.5 29.2 108 24.7 128.2-4.5 20.2 14.6 9.8 19.8 30.5 5.2 20.7-1.6 57.4-22.2 63-20.7 5.7-33.1 1.6-33.1 1.6s21.6 22.5 28.5 37.7c20.4-7.5 36.9-27.6 36.5-60.2 14-80.4 11.5-134.5 4.4-169.4-5.3 3-12.8 4-21.4-3z"/><path id="XMLID_160_" class="st9" d="M315.4 198.6s10.7-9 17.2-2.6c0 0 2.1-16.3-11.2-15.9 0 0 3.4-5.6 9-3 5.6 2.6 1.7.9 1.7.9s-10.7-16.7-27-2.1c0 0 5.6-9-.4-12.9s-15.5-5.2-15.5-5.2 4.7 9.9 2.6 9.9-1.7-5.2-21-2.6-19.3 19.8-19.3 19.8-7.3-2.1-12 6c-4.7 8.2 14.2 31.8 21.9 34.8 7.7 3 15.9-2.6 15.9-2.6v-24.5h38.1z"/><path id="XMLID_159_" class="st12" d="M312.8 187.3s2.3-11.4 7.2-12c0 0-14.9 1.7-18 9.4 0 0-.3-8.3-2.6-10 0 0 .3 5.7-6.9 5.7s-13.2-9.2-24-3.1c-10.9 6-7.4 20-7.4 20s-8.9-.9-11.4 4.3c-1.4 2.9.2 10 1.8 15.8 3.7 4.1 7.4 7.3 9.9 8.3 7.7 3 15.9-2.6 15.9-2.6v-24.5h38.2s10.7-9 17.2-2.6v-.4c-2.9-4.6-9.1-12.1-19.9-8.3z"/><path id="XMLID_158_" class="st3" d="M317.3 195.2s9.6 37.1-.7 46.7c-10.3 9.6-43.9-7.5-43.9-7.5s-24.7-2.7-18.5-15.1c6.2-12.4 15.8-5.5 15.8-5.5s-11-27.4 1.4-30.2c12.4-2.7 21.3 6.9 30.9 8.2 9.5 1.3 10.9-4.2 15 3.4z"/><path id="XMLID_157_" class="st12" d="M317.3 195.2c-4.1-7.5-5.5-2.1-15.1-3.4-.2 0-.3-.1-.5-.1 4.8 16 10.5 41.4 2.6 53 5 .4 9.5-.2 12.3-2.8 10.3-9.7.7-46.7.7-46.7z"/><path id="XMLID_156_" class="st5" d="M386.7 544.2c0 .4-.5.6-1.2.6s-1.2-.3-1.2-.6c0-.4.5-.6 1.2-.6.7-.1 1.2.2 1.2.6z"/><path id="XMLID_155_" class="st5" d="M482.6 541.1c0 .7-1 1.2-2.1 1.2-1.2 0-2.1-.5-2.1-1.2s1-1.2 2.1-1.2 2.1.6 2.1 1.2z"/><path id="XMLID_154_" class="st5" d="M384.5 548c0 .4-.5.6-1.2.6s-1.2-.3-1.2-.6c0-.4.5-.6 1.2-.6s1.2.3 1.2.6z"/><path id="XMLID_153_" class="st2" d="M323 380.6c-12.8 4-27.2 8.7-40.4 13.2 2.8-38.6 2.3-105.2-5.5-113.5-10.4-11-36.3-14.9-44.7 7.8-7.9 21.3 3.6 118.1 9.9 136.1.7 5 2.3 10 5.7 12.8 8.4 7.1 14.2 10.4 31.1 2.6 8.9-4.1 33.7-19.4 55-32.8-2.9-7-7.9-19.1-11.1-26.2z"/><path id="XMLID_152_" class="st13" d="M269.7 416.1C259.5 407.3 241 335 231 293.5c-5 28.7 5.4 113.9 11.2 130.7.7 5 2.3 10 5.7 12.8 8.4 7.1 14.2 10.4 31.1 2.6 8.9-4.1 33.7-19.4 55-32.8-1.5-3.8-3.7-9-5.8-14.2-15.8 11.6-47.7 32.7-58.5 23.5z"/><path id="XMLID_151_" d="M609.2 246.8c-14-3.6-51.2-5.2-63.6-12.4-12.4-7.2-21.7-18.6-21.7-18.6s-.9 23.7-12.3 31.6c-.6 48.9 9.6 145 9.6 145l14.8-9.9s2.2-14.3 3.1-15.7c.9-1.3 1.8 11.7 1.8 11.7l14.3-8.5 1.3-17.5 3.6 13s61.4-35.9 69.9-52.9c3-6 2.8-23.1-.3-42.8-6.2-10.8-13.9-21.3-20.5-23z" fill="#170a39"/><path id="XMLID_150_" d="M672.4 558.2c-12.9-6.9-57.3-22.1-96.6-34.7-18.1 5.3-45 11.1-67.6 8.1 27.2 17.4 94.6 60.3 113.1 68.8 23.3 10.8 31.4 6.3 43-3.6 11.7-9.9 8.1-38.6 8.1-38.6z" fill="#febfc1"/><path id="XMLID_149_" class="st2" d="M400.7 22H295.9c-12.9 0-23.4 10.5-23.4 23.4v44.1c0 12.8 10.3 23.2 23 23.4l-10.6 29 42.9-28.9h72.8c12.9 0 23.4-10.5 23.4-23.4V45.4c.1-12.9-10.4-23.4-23.3-23.4z"/><path id="XMLID_148_" d="M487.4 0h67.4c22.1 0 40 17.9 40 40v29.1c0 14.8-8 27.7-20 34.6.1 14.1.5 39.9 1.8 41.8 1.4 2-35-23.5-53.4-36.4h-35.8c-22.1 0-40-17.9-40-40V40c0-22.1 17.9-40 40-40z" fill="#3375bc"/><path id="XMLID_147_" class="st17" d="M559.7 35.2H476c-3 0-5.5-2.4-5.5-5.5 0-3 2.4-5.5 5.5-5.5h83.7c3 0 5.5 2.4 5.5 5.5-.1 3-2.5 5.5-5.5 5.5z"/><path id="XMLID_146_" class="st17" d="M394.3 51.7h-83.7c-3 0-5.5-2.4-5.5-5.5 0-3 2.4-5.5 5.5-5.5h83.7c3 0 5.5 2.4 5.5 5.5s-2.5 5.5-5.5 5.5z"/><path id="XMLID_145_" class="st17" d="M393.3 77h-83.7c-3 0-5.5-2.4-5.5-5.5 0-3 2.4-5.5 5.5-5.5h83.7c3 0 5.5 2.4 5.5 5.5-.1 3.1-2.5 5.5-5.5 5.5z"/><path id="XMLID_144_" class="st17" d="M559.7 61.9H476c-3 0-5.5-2.4-5.5-5.5 0-3 2.4-5.5 5.5-5.5h83.7c3 0 5.5 2.4 5.5 5.5-.1 3-2.5 5.5-5.5 5.5z"/><path id="XMLID_143_" class="st17" d="M530.5 84.9h-54.6c-3 0-5.5-2.4-5.5-5.5 0-3 2.4-5.5 5.5-5.5h54.6c3 0 5.5 2.4 5.5 5.5s-2.5 5.5-5.5 5.5z"/><path id="XMLID_142_" class="st17" d="M395.1 98.4h-54.6c-3 0-5.5-2.4-5.5-5.5 0-3 2.4-5.5 5.5-5.5h54.6c3 0 5.5 2.4 5.5 5.5 0 3-2.4 5.5-5.5 5.5z"/><g id="XMLID_132_"><path id="XMLID_141_" class="st9" d="M907.2 287.9l-92.6-82.1-90.1 82.7 16.1 64.2 154.3-4.3z"/><path id="XMLID_140_" class="st1" d="M741.5 234.5h153v167.2h-153z"/><path id="XMLID_139_" class="st5" d="M757.3 332.3H877v3.1H757.3z"/><path id="XMLID_138_" class="st7" d="M724.5 288.5s-3.1 121.6-1.2 120.3c1.9-1.2 185.1-.6 185.1-.6l-1.2-120.3-93.2 77.2-89.5-76.6z"/><path id="XMLID_137_" class="st1" d="M814.6 329.3l-91.3 79.6 185.1-.6z"/><path id="XMLID_136_" class="st5" d="M755.4 247.8h119.7v3.1H755.4z"/><path id="XMLID_135_" class="st5" d="M755.4 267.5h119.7v3.1H755.4z"/><path id="XMLID_134_" class="st5" d="M756 311.4h119.7v3.1H756z"/><path id="XMLID_133_" class="st5" d="M755.4 289.8h119.7v3.1H755.4z"/></g><g id="XMLID_129_"><path id="XMLID_131_" class="st7" d="M492.4 330.1l-13.7-32.5c3.7-5.9 5.8-12.5 5.8-19.5 0-24.4-25.1-44.2-56-44.2s-56 19.8-56 44.2c0 24.4 25.1 44.2 56 44.2 9.2 0 17.9-1.8 25.5-4.9l38.4 12.7z"/><path id="XMLID_130_" class="st5" d="M449 263.2c-10.9-5.7-18 4.7-18.1 5-.1-.3-6.9-10-18.1-5-17.4 7.8 12.1 39.6 17.8 38.3 6.2 2.4 33.6-30.3 18.4-38.3z"/></g><path id="XMLID_128_" class="st1" d="M280.4 724.8c-7.2-6.2-32-4.1-32-4.1s84.7-47.5 65.1-56.8c-19.6-9.3-74.4 17.6-74.4 17.6s105.4-70.3 93-79.6c-12.4-9.3-34.1 1-34.1 1s59.9-37.2 45.5-46.5c-14.5-9.3-43.4 7.2-43.4 7.2s48.6-34.1 33.1-45.5c-15.5-11.4-35.1 7.2-35.1 7.2s7.2-27.9-7.2-28.9c-14.5-1-40.3 21.7-40.3 21.7s10.3-30-7.2-32c-3.8-.4-12.8 1.7-24.5 5.3-51.9 50.5-120.3 109.4-124.6 176-3.1 48.4 57.4 73.4 141.3 81.9 19.9-7.8 49.7-20.4 44.8-24.5z"/><path id="XMLID_127_" class="st18" d="M419.9 733s-29.6-157.8-40.7-151.6c-10.9 6.2 40.7 151.6 40.7 151.6z"/><path id="XMLID_126_" class="st18" d="M388.9 673.8c-2.8-2.1-54.4-56.5-53.7-40.7.7 15.9 53.7 40.7 53.7 40.7z"/><path id="XMLID_125_" class="st18" d="M404.1 708.2c-2.3-1.6-44.7-44.9-44.1-32.3.6 12.6 44.1 32.3 44.1 32.3z"/><path id="XMLID_124_" class="st18" d="M381.4 729.6c-2.3-1.6-44.7-44.9-44.1-32.3.5 12.6 44.1 32.3 44.1 32.3z"/><path id="XMLID_123_" class="st18" d="M419.9 661.4s17.9-60.6 22.7-46.2c4.9 14.5-22.7 46.2-22.7 46.2z"/><path id="XMLID_122_" class="st18" d="M426.1 706.2s17.9-60.6 22.7-46.2c4.9 14.5-22.7 46.2-22.7 46.2z"/><path id="XMLID_121_" class="st18" d="M462 728.9s17.9-60.6 22.7-46.2c4.8 14.5-22.7 46.2-22.7 46.2z"/><path id="XMLID_120_" class="st18" d="M189.1 729.6s117.8-49.6 101.3-54.4c-16.5-4.9-101.3 54.4-101.3 54.4z"/><path id="XMLID_119_" class="st18" d="M210.5 737.2s59.9-6.2 48.9-10.3c-11-4.2-48.9 10.3-48.9 10.3z"/><path id="XMLID_118_" class="st18" d="M160.9 718.6S329 609 315.2 607.7c-13.8-1.4-121.9 77.1-154.3 110.9z"/><path id="XMLID_117_" class="st18" d="M167.1 682.7s168.1-109.6 154.3-110.9c-13.8-1.4-121.9 77.2-154.3 110.9z"/><path id="XMLID_116_" class="st18" d="M160.9 646.9S329 537.3 315.2 536c-13.8-1.4-121.9 77.1-154.3 110.9z"/><path id="XMLID_115_" class="st18" d="M153.3 633.1s148.1-128.2 130.2-125.4c-17.9 2.8-106.8 99.2-130.2 125.4z"/><path id="XMLID_114_" class="st18" d="M124.4 635.9s130.2-135 113-134.4c-17.3.7-95.8 107.5-113 134.4z"/><path id="XMLID_113_" class="st18" d="M100.9 226.6s88.9-114.4 116.4-128.2c.1.1-98.4 116.5-116.4 128.2z"/><path id="XMLID_112_" class="st18" d="M754.8 104.7s-97.8 93-96.5 102c1.4 8.9 96.5-102 96.5-102z"/><path id="XMLID_111_" class="st5" d="M777.5 125.3s27.6 34.5 15.8 32.4c-11.6-2.1-15.8-32.4-15.8-32.4z"/><path id="XMLID_110_" class="st5" d="M741.9 138.8s27.6 34.5 15.8 32.4c-11.7-2.1-15.8-32.4-15.8-32.4z"/><path id="XMLID_109_" class="st18" d="M722.4 158.9c0 1.5-3.6 33.1 1 33.1 4.7 0-1-33.1-1-33.1z"/><path id="XMLID_108_" class="st18" d="M697.1 177.5c0 1.6-3.6 33.1 1 33.1 4.7 0-1-33.1-1-33.1z"/><path id="XMLID_72_" class="st5" d="M719.8 120.2s-47 5.2-47 11.9 47-11.9 47-11.9z"/><path id="XMLID_64_" class="st18" d="M741 95.9s-43.4-5.2-42.9.5 42.9-.5 42.9-.5z"/><path id="XMLID_63_" class="st18" d="M695.5 149.1c-1.5.5-46.5 12.4-43.9 18.1 2.6 5.7 43.9-18.1 43.9-18.1z"/><path id="XMLID_62_" class="st5" d="M362.8 544.9H0s11.4-47.5 68.2-44.4c0 0 22.7-43.4 57.9-38.2 0 0 23.8-27.9 56.8-24.8 33.1 3.1 32 31 32 31s45.5-4.1 57.9 10.3c12.4 14.5 8.3 28.9 8.3 28.9s81.7-8.2 81.7 37.2z"/><path id="XMLID_34_" class="st7" d="M685.9 390.6c-11.7-31.4-47.5-26-61.9-10.8-10.8 11.5-11.4 103.7-7.6 157.1-18.3-6.2-38.3-12.7-56-18.3-4.5 9.8-11.4 26.6-15.3 36.4 29.5 18.6 63.8 39.7 76.2 45.4 23.3 10.8 31.4 6.3 43-3.6 4.7-3.9 6.9-10.9 7.8-17.8 8.8-25 24.7-159 13.8-188.4z"/><path id="XMLID_20_" d="M630.8 580.1c-22.2-3.1-46.7-8.2-66.1-12.9 23.8 14.7 46.9 28.7 56.6 33.2 23.3 10.8 31.4 6.3 43-3.6 4.7-3.9 6.9-10.9 7.8-17.8 7.1-20.4 19-113.6 17.2-163.1-8 61.8-26.6 168.6-58.5 164.2z" fill="#3e44bf"/><path id="XMLID_13_" class="st3" d="M580.5 352.9l-5.8-36.8s-12.1 13.9-25.1 9c-13-4.9-27.8-65-30-75.3 0 0 2.7-1.8 4.9-6.7s1.8-12.6 1.8-12.6 20.2 23.8 44.8 25.1c24.7 1.3 22.9 16.1 22.9 16.1s3.6-7.6 10.3-2.7c6.7 4.9 4.5 21.1 2.2 23.3-2.2 2.2-4.5 3.6-4.5 3.6l21.5 33.2c.1 0-12.5 43.1-43 23.8z"/><path id="XMLID_1_" d="M582.4 304.6s-15.5 9.8-26.9 7.8c-8.4-1.5-20.1-51.7-25.7-78.1-2.3-2.2-3.5-3.7-3.5-3.7s.4 7.6-1.8 12.6c-2.2 4.9-4.9 6.7-4.9 6.7 2.2 10.3 17 70.4 30 75.3 13 4.9 25.1-9 25.1-9l5.8 36.8c10 6.3 18 5.9 24.3 2.5-10.5-16.8-22.4-50.9-22.4-50.9z" opacity=".49" fill="#170000"/></svg>